<svg version="1" xmlns="http://www.w3.org/2000/svg" width="588" height="588" viewBox="0 0 441.000000 441.000000"><path d="M201.9 42.9c-16 3-34.8 10.8-46.4 19.3-27.3 20.1-44.1 49.7-47.5 83.6-1.2 12-.9 15.6 2.7 30.5 1.9 7.8 2.4 11 1.6 11.8-.6.6-5.1 1.5-10 2-22.6 2.3-26.7 2.9-27.7 3.9-.6.6-.6 1.3 0 1.9.5.6 10.3 4.6 21.8 9.1 33.6 12.9 45.1 19 47.5 24.9 1.3 3 6.9 6.1 13.6 7.6 5.9 1.3 5.8 1.1 2.1 8.1-2.4 4.6-3.3 7.2-2.7 8.3.5.9 1.4 4.3 2.1 7.6 1.1 5.6 21.5 49.5 22.9 49.5.4 0 1.2-4.1 1.9-9.1 1.9-14.3-1.8-12.9 34.8-12.9 27.3 0 31.5.2 32 1.5.4.9 1.4 6 2.3 11.5l1.6 10 11.1-22.2c7.2-14.3 11.6-24.5 12.4-28.3.7-3.3 1.6-6.8 2.1-7.7.6-1.1.2-4-1.2-8.3-1.1-3.7-1.9-6.8-1.7-6.9.2-.1 2.5-.7 5.1-1.4 8.3-2.1 11.6-3.9 13.8-7.7 3.6-6.1 14.9-10.5 44.4-17.5 23.9-5.6 25.6-6.1 25.2-7.4-.7-2-7.8-5.3-20.6-9.6-12.5-4.2-19.1-7.3-19.1-9.1 0-.5.9-4.2 2-8.2 3.2-11.5 4-21 2.9-32.2-2.7-27.5-14.1-51.8-33.4-71-14.3-14.3-30.3-23.7-49.6-29.1-7.9-2.2-11.9-2.6-25.4-2.9-8.8-.2-18.1 0-20.6.4zm-10.1 115c11.4 5 16 16.6 11.7 29.2-2.3 6.7-6.7 11.4-14.3 15.1-6.2 3.1-7.4 3.3-16.7 3.3-8.7 0-10.7-.3-15.5-2.6-12.1-5.7-18-14.3-18-26.2 0-16 9.9-22 35.5-21.4 9.9.3 12.9.7 17.3 2.6zm88.8-1.8c13.7 2.5 19.4 8.6 19.4 20.6 0 11.9-5.9 20.5-18 26.2-4.8 2.3-6.8 2.6-15.5 2.6-8.2 0-10.9-.5-14.9-2.3-10.9-5-16.4-11.9-17.3-21.9-1.2-13.4 5.2-22.1 18.4-25.2 5.4-1.3 20.9-1.3 27.9 0zm-57.4 54.6c.8 1 4.1 6 7.2 11.1 8.2 13.4 8.3 13.2-11.5 13.2H203v-2.5c0-2.1 2.7-7 11.6-21.3 1.8-2.7 6.4-3 8.6-.5zM0 326v6h441v-12H0v6zM185 345.5c-2.6 3.2 1.3 8.1 4.8 5.9 3.4-2.2 2.2-7.4-1.8-7.4-1 0-2.3.7-3 1.5zM32.3 367.5C41 389 41.6 390 44.1 390c2.6 0 3.1-1 11.7-22.6l9.1-22.5-3.2.3c-3.1.3-3.3.6-9.9 16.8-3.6 9.1-6.7 17.4-6.7 18.4-.2 3.4-1.5.6-8.1-16.4-3.5-9.1-6.8-17.1-7.3-17.8-.5-.6-2.2-1.2-3.8-1.2h-2.8l9.2 22.5zM263 347.5c0 2.4.2 2.5 7 2.5h7v40h6v-40h7.5c7.3 0 7.5-.1 7.5-2.5V345h-35v2.5zM71.1 359.3c-2.8 1.4-4.8 4.3-3.8 5.4.4.4 2.2.1 4-.6 6.3-2.6 9.4-2.5 11.2.2 1.9 3 1.6 8.1-.5 8.4-.8.1-3.6.5-6.2.8-9.4 1.2-14.1 9.1-8.5 14.3 3 2.9 9.7 3 14.2.2l3.3-2 .5 2c.3 1.2 1.4 2 2.6 2 2 0 2.1-.5 2.1-10.3 0-12.1-1.1-16.9-4.7-19.7-3-2.3-10.4-2.7-14.2-.7zm12.7 20.4c-.3 3.3-.8 4.1-4.1 5.7-3.1 1.5-4.3 1.6-6.3.7-3-1.3-4.1-3.8-2.7-6 1.2-1.9 6.6-4 10.6-4 2.7-.1 2.8.1 2.5 3.6zM99 374v16h5v-12c0-11 .2-12.1 2.2-14 2.9-2.7 7.3-2.6 9.2.2 1.2 1.7 1.6 5 1.6 14V390h5.9l.3-12.7c.3-12.5.3-12.8 2.9-14.2 3.7-2.1 7.5-.8 8.8 3 .6 1.8 1.1 7.9 1.1 13.5V390h5.2l-.4-13.6c-.3-13.5-.3-13.6-3.1-16-3.9-3.4-10.5-3.3-14.5.1l-3 2.5-1.6-2.5c-2.2-3.4-8.9-3.5-12.3-.3l-2.4 2.2-.6-2.2c-.3-1.3-1.3-2.2-2.4-2.2-1.8 0-1.9 1-1.9 16zM149 379v21h2.5c2.4 0 2.5-.2 2.5-6.5v-6.6l3.2 1.7c6.4 3.3 14.3 0 17.4-7.3 3-7 1.1-18.3-3.7-21.7-3.4-2.3-10.4-2.1-14.1.5l-2.9 2.1-.6-2.1c-.3-1.2-1.3-2.1-2.4-2.1-1.8 0-1.9 1.1-1.9 21zm18.5-14.5c2.1 2.1 2.5 3.3 2.5 8.8 0 4.9-.5 7-2 9-2.7 3.4-7 4.3-10.9 2.2-3.1-1.5-3.1-1.6-3.1-10 0-7.8.2-8.5 2.6-10.4 3.6-2.8 7.9-2.7 10.9.4zM185 374v16h6v-32h-6v16zM199 374v16h5v-10.1c0-13.3 1.9-16.8 9.3-16.9 3.3 0 3.7-.3 3.7-2.5s-.4-2.5-3.7-2.5c-2.6 0-4.5.8-6.4 2.6l-2.8 2.7-.7-2.7c-.4-1.6-1.3-2.6-2.5-2.6-1.8 0-1.9 1-1.9 16zM225.7 361c-8.2 7.1-6.6 23 2.7 27.4 4.2 2 9.6 2.1 14 .2 7.2-3 5.5-6.9-1.7-4.1-3.8 1.4-5.1 1.5-8.1.5-3.8-1.2-6.6-5.1-6.6-9 0-1.9.6-2 11-2h11v-2.5c0-3.9-2.5-8.9-5.5-11.3-2.1-1.6-4.1-2.2-8.1-2.2-4.5 0-5.9.5-8.7 3zm15.2 3.6c1.2 1.5 2.1 3.5 2.1 4.5 0 1.7-.9 1.9-8.5 1.9-9.1 0-9.5-.3-7-5 1.7-3.3 2.7-3.8 7.7-3.9 2.8-.1 4.1.5 5.7 2.5zM299.7 361c-8.4 7.3-6.8 22.9 2.8 27.4 4.6 2.2 11.5 1.7 15.4-1.1 6-4.4 7.9-14.8 4.1-22.3-2.5-5-6.4-7-13.4-7-4.7 0-6 .4-8.9 3zm13.8 1.6c4.5 1.8 6.2 14.9 2.5 19.7-4.1 5.2-12.4 4-15-2.3-2-4.9-.8-12.9 2.4-15.7 2.6-2.2 6.8-2.9 10.1-1.7zM328 358.7c0 .4 2.1 7.6 4.7 16 4.5 14.5 4.9 15.3 7.3 15.3 2.4 0 2.9-.8 6.5-12 2.1-6.6 4.1-11.7 4.4-11.4.3.3 2.2 5.6 4.1 11.7 3.3 10.3 3.8 11.2 6.2 11.5 2.6.3 2.8 0 7.4-14.5 2.6-8.1 4.9-15.4 5.1-16.1.3-.8-.4-1.2-2.1-1.2-3.1 0-2.9-.3-7.2 14.4l-3.2 11-3.9-12.5c-3.6-11.5-4.1-12.4-6.3-12.4-2.3 0-2.8 1-6.5 12.4l-4 12.4-3.6-12.4c-3.4-11.6-3.8-12.4-6.2-12.7-1.5-.2-2.7 0-2.7.5zM379 374v16h5v-11.9c0-11.7.1-12 2.6-14 3.6-2.8 8.8-2.8 10.8.1 1.2 1.7 1.6 5 1.6 14V390h6v-11c0-11.7-1.6-18.2-5.1-20-3.2-1.8-10.4-1.2-13.3 1.1l-2.7 2.1-.6-2.1c-.3-1.2-1.3-2.1-2.4-2.1-1.8 0-1.9 1-1.9 16z"/></svg>